<svg width="21" height="20" viewBox="0 0 21 20" fill="none" xmlns="http://www.w3.org/2000/svg">
<g clip-path="url(#clip0_314_15355)">
<path d="M15.0781 18.418L9.873 15.4102C8.7793 14.7656 7.7148 14.1016 6.709 13.3789V18.3496H5.3906V9.96094C5.3906 9.47266 5.4492 8.98438 5.5566 8.54492L1.2305 11.0352L0.576202 9.87305L5.8984 6.80664C6.9043 6.23047 7.9199 5.68359 8.9551 5.19531L9.1504 5.11719L4.8926 2.66602L5.5664 1.50391L10.791 4.52148C11.8555 5.13672 12.9395 5.82031 13.9258 6.5332V1.57227H15.2539V9.96094C15.2539 10.4492 15.1953 10.9277 15.0879 11.377L19.4043 8.88672L20.0684 10.0391L14.7559 13.1055C13.8379 13.6328 12.8906 14.1406 11.9434 14.5801L11.4941 14.8047L15.7422 17.2559L15.0781 18.418ZM10.3223 13.5645C12.3047 13.5645 13.9258 11.9434 13.9258 9.96094C13.9258 7.96875 12.3047 6.35742 10.3223 6.35742C8.3398 6.35742 6.7187 7.96875 6.7187 9.96094C6.7187 11.9434 8.3398 13.5645 10.3223 13.5645ZM10.3223 19.9219C4.8242 19.9219 0.361303 15.459 0.361303 9.96094C0.361303 4.46289 4.8242 0 10.3223 0C15.8203 0 20.2832 4.46289 20.2832 9.96094C20.2832 15.459 15.8203 19.9219 10.3223 19.9219ZM10.3223 18.2617C14.9121 18.2617 18.623 14.5508 18.623 9.96094C18.623 5.37109 14.9121 1.66016 10.3223 1.66016C5.7324 1.66016 2.0215 5.37109 2.0215 9.96094C2.0215 14.5508 5.7324 18.2617 10.3223 18.2617Z" fill="black" fill-opacity="0.85"/>
</g>
<defs>
<clipPath id="clip0_314_15355">
<rect width="20.2832" height="19.9316" fill="white" transform="matrix(-1 0 0 1 20.2832 0)"/>
</clipPath>
</defs>
</svg>
